<?xml version="1.0" encoding="utf-8"?>
<svg style="overflow: inherit;" width="50" height="50" viewBox="0 0 50 50" xmlns="http://www.w3.org/2000/svg" xmlns:bx="https://boxy-svg.com">
  <defs>
    <mask id="hole">
        <rect width="100%" height="100%" fill="white"/>
        <path d="M 29.517 19.902 L 21.246 19.902 C 21.047 19.902 20.884 19.726 20.884 19.512 C 20.884 19.296 21.047 19.122 21.246 19.122 L 29.517 19.122 C 29.717 19.122 29.88 19.296 29.88 19.512 C 29.88 19.726 29.718 19.902 29.517 19.902 Z M 19.278 22.027 C 17.993 22.027 16.947 20.899 16.947 19.512 C 16.947 18.125 17.992 16.997 19.278 16.997 C 20.564 16.997 21.609 18.125 21.609 19.512 C 21.609 20.899 20.564 22.027 19.278 22.027 Z M 19.278 17.777 C 18.392 17.777 17.671 18.555 17.671 19.512 C 17.671 20.467 18.392 21.245 19.278 21.245 C 20.164 21.245 20.885 20.467 20.885 19.512 C 20.885 18.555 20.164 17.777 19.278 17.777 Z M 31.486 22.027 C 30.201 22.027 29.155 20.899 29.155 19.512 C 29.155 18.125 30.2 16.997 31.486 16.997 C 32.772 16.997 33.817 18.125 33.817 19.512 C 33.817 20.899 32.771 22.027 31.486 22.027 Z M 31.486 17.777 C 30.6 17.777 29.88 18.555 29.88 19.512 C 29.88 20.467 30.6 21.245 31.486 21.245 C 32.372 21.245 33.093 20.467 33.093 19.512 C 33.093 18.555 32.372 17.777 31.486 17.777 Z M 29.519 19.902 L 21.248 19.902 C 21.048 19.902 20.886 19.726 20.886 19.512 C 20.886 19.296 21.048 19.122 21.248 19.122 L 29.521 19.122 C 29.72 19.122 29.883 19.296 29.883 19.512 C 29.883 19.726 29.72 19.902 29.519 19.902 Z M 35.193 19.902 L 33.453 19.902 C 33.253 19.902 33.091 19.726 33.091 19.512 C 33.091 19.296 33.253 19.122 33.453 19.122 L 35.193 19.122 C 35.64 19.122 36.015 18.774 36.084 18.297 L 36.425 15.941 C 36.464 15.675 36.401 15.411 36.249 15.197 C 36.098 14.984 35.877 14.851 35.63 14.822 L 30.377 14.207 C 30.305 14.199 30.237 14.168 30.183 14.119 L 25.8 10.144 C 25.53 9.899 25.185 9.764 24.831 9.764 L 17.614 9.764 C 17.282 9.764 16.975 9.94 16.787 10.234 L 14.163 14.364 C 14.031 14.569 13.98 14.817 14.015 15.064 L 14.482 18.297 C 14.552 18.774 14.927 19.122 15.375 19.122 L 17.305 19.122 C 17.505 19.122 17.667 19.297 17.667 19.513 C 17.667 19.727 17.505 19.903 17.305 19.903 L 15.376 19.903 C 14.569 19.903 13.893 19.278 13.768 18.419 L 13.3 15.185 C 13.236 14.741 13.329 14.293 13.566 13.922 L 16.192 9.792 C 16.512 9.287 17.045 8.984 17.614 8.984 L 24.832 8.984 C 25.356 8.984 25.865 9.184 26.265 9.547 L 30.563 13.446 L 35.707 14.048 C 36.154 14.1 36.549 14.34 36.823 14.723 C 37.096 15.108 37.209 15.584 37.14 16.064 L 36.799 18.419 C 36.675 19.278 35.999 19.902 35.193 19.902 Z M 27.222 14.512 L 16.753 14.512 C 16.553 14.512 16.391 14.337 16.391 14.122 C 16.391 13.906 16.553 13.73 16.753 13.73 L 27.222 13.73 C 27.421 13.73 27.584 13.906 27.584 14.122 C 27.584 14.337 27.421 14.512 27.222 14.512 Z" style="fill: black;" bx:origin="0 0"/>
    </mask>
  </defs>

  <path d="M 25.015 2.4 L 25.015 2.3999999999999986 C 32.812 2.3999999999999986 39.137 8.603999999999997 39.137 16.253999999999998 C 39.137 23.906 25.015 49 25.015 49 C 25.015 49 10.894 23.906 10.894 16.253999999999998 C 10.894 8.604 17.215 2.4 25.015 2.4 Z" mask="url(#hole)" fill="#686868"/>

</svg>
